<svg width="0" height="0" style="position:absolute"><symbol id="icon-fb" viewBox="0 0 76 76"><style id="astyle3388">.ast0{fill:#2a445d}.st1{fill:#37546b}.st2{fill:#213b51}</style><g id="ag3390" fill="#20b2aa"><path class="ast0" d="M65 1H11C5.5 1 1 5.5 1 11v54c0 5.5 4.5 10 10 10h26.7V48.6h-6.9c-.9 0-1.6-.7-1.6-1.6v-8.5c0-.9.7-1.6 1.6-1.6h6.9v-8.2c0-9.6 5.8-14.8 14.4-14.8h7c.9 0 1.6.7 1.6 1.6v7.2c0 .9-.7 1.6-1.6 1.6h-4.3c-4.6 0-5.5 2.2-5.5 5.4v7.1h10.2c1 0 1.7.8 1.6 1.8l-1 8.5c-.1.8-.8 1.4-1.6 1.4h-9.1v26.4H65c5.5 0 10-4.5 10-10V11c0-5.5-4.5-10-10-10z" id="apath3392"/></g></symbol><symbol viewBox="0 0 32 32" id="icon-gh"><path clip-rule="evenodd" d="M16.003 0C7.17 0 .008 7.162.008 15.997c0 7.067 4.582 13.063 10.94 15.179.8.146 1.052-.328 1.052-.752 0-.38.008-1.442 0-2.777-4.449.967-5.371-2.107-5.371-2.107-.727-1.848-1.775-2.34-1.775-2.34-1.452-.992.109-.973.109-.973 1.605.113 2.451 1.649 2.451 1.649 1.427 2.443 3.743 1.737 4.654 1.329.146-1.034.56-1.739 1.017-2.139-3.552-.404-7.286-1.776-7.286-7.906 0-1.747.623-3.174 1.646-4.292-.165-.404-.715-2.031.157-4.234 0 0 1.343-.43 4.398 1.641a15.31 15.31 0 0 1 4.005-.538c1.359.006 2.727.183 4.005.538 3.055-2.07 4.396-1.641 4.396-1.641.872 2.203.323 3.83.159 4.234 1.023 1.118 1.644 2.545 1.644 4.292 0 6.146-3.74 7.498-7.304 7.893C19.479 23.548 20 24.508 20 26v4.428c0 .428.258.901 1.07.746C27.422 29.055 32 23.062 32 15.997 32 7.162 24.838 0 16.003 0z" fill="#20b2aa" fill-rule="evenodd"/></symbol><symbol id="icon-gp" viewBox="0 0 76 76"><style id="cstyle4731">.cst0{fill:#2a445d}.st1{fill:#37546b}.st2{fill:#213b51}</style><g id="cg4733" fill="#20b2aa"><g id="cg4735"><path class="cst0" d="M27 42.9h11.6c-2 5.7-7.5 9.9-14 9.8-7.8-.1-14.3-6.3-14.6-14.1-.3-8.4 6.4-15.3 14.7-15.3 3.8 0 7.3 1.4 9.9 3.8.6.6 1.6.6 2.2 0l4.2-4c.7-.6.7-1.7 0-2.3-4.1-3.9-9.7-6.4-15.8-6.5C12.1 14.1 1.1 24.8 1 37.8.9 51 11.5 61.7 24.7 61.7c12.6 0 22.9-9.9 23.6-22.3V34H27c-.9 0-1.6.7-1.6 1.6v5.8c0 .8.7 1.5 1.6 1.5z" id="cpath4737"/><path class="cst0" d="M67.9 34.4v-5.7c0-.8-.6-1.4-1.4-1.4h-4.8c-.8 0-1.4.6-1.4 1.4v5.7h-5.7c-.8 0-1.4.6-1.4 1.4v4.8c0 .8.6 1.4 1.4 1.4h5.7v5.7c0 .8.6 1.4 1.4 1.4h4.8c.8 0 1.4-.6 1.4-1.4V42h5.7c.8 0 1.4-.6 1.4-1.4v-4.8c0-.8-.6-1.4-1.4-1.4h-5.7z" id="cpath4739"/></g></g></symbol><symbol id="icon-im" viewBox="0 0 76 76"><style id="dstyle4509">.dst0{fill:#2a445d}.st1{fill:#37546b}.st2{fill:#213b51}</style><g id="dg4511" fill="#20b2aa"><g id="dXMLID_1_"><path class="dst0" d="M53 1H23C10.9 1 1 10.9 1 23v30c0 12.2 9.9 22 22 22h30c12.2 0 22-9.9 22-22V23c0-12.1-9.9-22-22-22zm14.6 52c0 8-6.6 14.6-14.6 14.6H23C15 67.6 8.4 61 8.4 53V23C8.4 15 15 8.4 23 8.4h30c8 0 14.6 6.6 14.6 14.6v30z" id="dXMLID_4_"/><path class="dst0" d="M38 18.9c-10.6 0-19.1 8.6-19.1 19.1S27.4 57.1 38 57.1 57.1 48.6 57.1 38 48.6 18.9 38 18.9zm0 30.8c-6.5 0-11.7-5.2-11.7-11.7S31.5 26.3 38 26.3c6.5 0 11.7 5.2 11.7 11.7 0 6.5-5.2 11.7-11.7 11.7z" id="dXMLID_3_"/><circle class="dst0" cx="57.2" cy="19" id="dXMLID_2_" r="4.6"/></g></g></symbol><symbol id="icon-in" viewBox="0 0 76 76"><style id="estyle4299">.est0{fill:#2a445d}.st1{fill:#37546b}.st2{fill:#213b51}</style><g id="eg4301" fill="#20b2aa"><path class="est0" d="M68.3 1H7.7C4 1 1 4 1 7.7v60.6C1 72 4 75 7.7 75h60.6c3.7 0 6.7-3 6.7-6.7V7.7C75 4 72 1 68.3 1zM23.9 64.9c0 1.1-.9 1.9-1.9 1.9h-8.3c-1.1 0-1.9-.9-1.9-1.9V30.1c0-1.1.9-1.9 1.9-1.9H22c1.1 0 1.9.9 1.9 1.9v34.8zm-6.1-40c-4.4 0-7.9-3.5-7.9-7.9s3.5-7.9 7.9-7.9 7.9 3.5 7.9 7.9-3.5 7.9-7.9 7.9zm49.4 40.2c0 1-.8 1.8-1.8 1.8h-8.9c-1 0-1.8-.8-1.8-1.8V48.7c0-2.4.7-10.7-6.4-10.7-5.5 0-6.6 5.6-6.8 8.2V65c0 1-.8 1.8-1.8 1.8h-8.6c-1 0-1.8-.8-1.8-1.8V30c0-1 .8-1.8 1.8-1.8h8.6c1 0 1.8.8 1.8 1.8v3c2-3.1 5.1-5.4 11.5-5.4 14.2 0 14.2 13.3 14.2 20.6v16.9z" id="epath4303"/></g></symbol><symbol id="icon-tw" viewBox="0 0 76 76"><style id="fstyle4403">.fst0{fill:#2a445d}.st1{fill:#37546b}.st2{fill:#213b51}</style><g id="fg4405" fill="#20b2aa"><path class="fst0" d="M73.8 14.4c-1.6.7-3.4 1.3-5.1 1.7 1.9-1.8 3.4-4.1 4.2-6.7.2-.7-.6-1.4-1.2-1-2.4 1.4-5.1 2.5-7.8 3.2-.2 0-.3.1-.5.1-.5 0-1-.2-1.4-.5-2.9-2.6-6.7-4-10.6-4-1.7 0-3.4.3-5.1.8-5.2 1.6-9.2 5.9-10.4 11.1-.5 2-.6 4-.4 5.9 0 .2-.1.4-.1.4-.1.1-.3.2-.4.2h-.1c-11.3-1.1-21.5-6.5-28.8-15.4-.4-.5-1.1-.4-1.4.1-1.4 2.4-2.2 5.2-2.2 8 0 4.3 1.7 8.4 4.8 11.4-1.1-.2-2.3-.7-3.5-1.3-.6-.3-1.2.1-1.2.7-.1 6.4 3.7 12.1 9.3 14.7h-.3c-.9 0-1.8-.1-2.7-.3-.6-.1-1.1.5-1 1.1 1.8 5.7 6.7 9.9 12.6 10.9-4.9 3.3-10.6 5-16.5 5H2.2c-.6 0-1 .4-1.2.9-.1.5.1 1.1.6 1.4 6.7 3.9 14.3 5.9 22 5.9 6.8 0 13.1-1.3 18.8-4 5.2-2.4 9.9-5.9 13.8-10.3 3.6-4.1 6.5-8.9 8.4-14.1 1.9-5 2.9-10.3 2.9-15.4v-.2c0-.8.4-1.6 1-2.1 2.5-2 4.6-4.3 6.3-7 .5-.7-.2-1.6-1-1.2z" id="fpath4407"/></g></symbol><symbol id="icon-yt" viewBox="0 0 76 76"><style id="gstyle4619">.gst0{fill:#2a445d}.st1{fill:#37546b}.st2{fill:#213b51}</style><g id="gg4621" fill="#20b2aa"><g id="gg4623"><path class="gst0" d="M59.6 11.8H16.4C7.9 11.8 1 18.7 1 27.2v21.6c0 8.5 6.9 15.4 15.4 15.4h43.3c8.5 0 15.4-6.9 15.4-15.4V27.2c-.1-8.5-7-15.4-15.5-15.4zM49.2 39.1L29 48.7c-.5.3-1.2-.1-1.2-.7V28.1c0-.6.6-1 1.2-.7l20.2 10.3c.7.2.6 1.1 0 1.4z" id="gpath4625"/></g></g></symbol></svg>