<?xml version="1.0" encoding="UTF-8" standalone="no"?>
<svg
   xmlns:dc="http://purl.org/dc/elements/1.1/"
   xmlns:cc="http://creativecommons.org/ns#"
   xmlns:rdf="http://www.w3.org/1999/02/22-rdf-syntax-ns#"
   xmlns:svg="http://www.w3.org/2000/svg"
   xmlns="http://www.w3.org/2000/svg"
   xmlns:sodipodi="http://sodipodi.sourceforge.net/DTD/sodipodi-0.dtd"
   xmlns:inkscape="http://www.inkscape.org/namespaces/inkscape"
   id="Layer_1"
   style="enable-background:new 0 0 76 76;"
   version="1.1"
   viewBox="0 0 76 76"
   xml:space="preserve"
   inkscape:version="0.91 r13725"
   sodipodi:docname="1477545750_43.svg"><metadata
     id="metadata4521"><rdf:RDF><cc:Work
         rdf:about=""><dc:format>image/svg+xml</dc:format><dc:type
           rdf:resource="http://purl.org/dc/dcmitype/StillImage" /><dc:title></dc:title></cc:Work></rdf:RDF></metadata><defs
     id="defs4519" /><sodipodi:namedview
     pagecolor="#ffffff"
     bordercolor="#666666"
     borderopacity="1"
     objecttolerance="10"
     gridtolerance="10"
     guidetolerance="10"
     inkscape:pageopacity="0"
     inkscape:pageshadow="2"
     inkscape:window-width="1366"
     inkscape:window-height="730"
     id="namedview4517"
     showgrid="false"
     inkscape:zoom="7.2105263"
     inkscape:cx="38"
     inkscape:cy="38"
     inkscape:window-x="0"
     inkscape:window-y="26"
     inkscape:window-maximized="1"
     inkscape:current-layer="Layer_1" /><style
     type="text/css"
     id="style4509">
	.st0{fill:#2A445D;}
	.st1{fill:#37546B;}
	.st2{fill:#213B51;}
</style><g
     id="g4511"
     style="fill:#20b2aa;fill-opacity:1"><g
       id="XMLID_1_"
       style="fill:#20b2aa;fill-opacity:1"><path
         class="st0"
         d="M53,1H23C10.9,1,1,10.9,1,23V53c0,12.2,9.9,22,22,22H53c12.2,0,22-9.9,22-22V23    C75,10.9,65.1,1,53,1z M67.6,53C67.6,61,61,67.6,53,67.6H23C15,67.6,8.4,61,8.4,53V23C8.4,15,15,8.4,23,8.4H53    C61,8.4,67.6,15,67.6,23V53L67.6,53z"
         id="XMLID_4_"
         style="fill:#20b2aa;fill-opacity:1" /><path
         class="st0"
         d="M38,18.9c-10.6,0-19.1,8.6-19.1,19.1S27.4,57.1,38,57.1S57.1,48.6,57.1,38S48.6,18.9,38,18.9z     M38,49.7c-6.5,0-11.7-5.2-11.7-11.7S31.5,26.3,38,26.3c6.5,0,11.7,5.2,11.7,11.7C49.7,44.5,44.5,49.7,38,49.7z"
         id="XMLID_3_"
         style="fill:#20b2aa;fill-opacity:1" /><circle
         class="st0"
         cx="57.2"
         cy="19"
         id="XMLID_2_"
         r="4.6"
         style="fill:#20b2aa;fill-opacity:1" /></g></g></svg>