<?xml version="1.0" encoding="UTF-8" standalone="no"?>
<svg
   xmlns:dc="http://purl.org/dc/elements/1.1/"
   xmlns:cc="http://creativecommons.org/ns#"
   xmlns:rdf="http://www.w3.org/1999/02/22-rdf-syntax-ns#"
   xmlns:svg="http://www.w3.org/2000/svg"
   xmlns="http://www.w3.org/2000/svg"
   xmlns:sodipodi="http://sodipodi.sourceforge.net/DTD/sodipodi-0.dtd"
   xmlns:inkscape="http://www.inkscape.org/namespaces/inkscape"
   id="Layer_1"
   style="enable-background:new 0 0 76 76;"
   version="1.1"
   viewBox="0 0 76 76"
   xml:space="preserve"
   inkscape:version="0.91 r13725"
   sodipodi:docname="1477545735_44.svg"><metadata
     id="metadata4309"><rdf:RDF><cc:Work
         rdf:about=""><dc:format>image/svg+xml</dc:format><dc:type
           rdf:resource="http://purl.org/dc/dcmitype/StillImage" /><dc:title></dc:title></cc:Work></rdf:RDF></metadata><defs
     id="defs4307" /><sodipodi:namedview
     pagecolor="#ffffff"
     bordercolor="#666666"
     borderopacity="1"
     objecttolerance="10"
     gridtolerance="10"
     guidetolerance="10"
     inkscape:pageopacity="0"
     inkscape:pageshadow="2"
     inkscape:window-width="1366"
     inkscape:window-height="730"
     id="namedview4305"
     showgrid="false"
     inkscape:zoom="7.2105263"
     inkscape:cx="38"
     inkscape:cy="38"
     inkscape:window-x="0"
     inkscape:window-y="26"
     inkscape:window-maximized="1"
     inkscape:current-layer="Layer_1" /><style
     type="text/css"
     id="style4299">
	.st0{fill:#2A445D;}
	.st1{fill:#37546B;}
	.st2{fill:#213B51;}
</style><g
     id="g4301"
     style="fill:#20b2aa;fill-opacity:1"><path
       class="st0"
       d="M68.3,1H7.7C4,1,1,4,1,7.7v60.6C1,72,4,75,7.7,75h60.6c3.7,0,6.7-3,6.7-6.7V7.7C75,4,72,1,68.3,1z M23.9,64.9   c0,1.1-0.9,1.9-1.9,1.9h-8.3c-1.1,0-1.9-0.9-1.9-1.9V30.1c0-1.1,0.9-1.9,1.9-1.9H22c1.1,0,1.9,0.9,1.9,1.9V64.9z M17.8,24.9   c-4.4,0-7.9-3.5-7.9-7.9s3.5-7.9,7.9-7.9s7.9,3.5,7.9,7.9S22.2,24.9,17.8,24.9z M67.2,65.1c0,1-0.8,1.8-1.8,1.8h-8.9   c-1,0-1.8-0.8-1.8-1.8V48.7c0-2.4,0.7-10.7-6.4-10.7c-5.5,0-6.6,5.6-6.8,8.2v18.8c0,1-0.8,1.8-1.8,1.8h-8.6c-1,0-1.8-0.8-1.8-1.8   V30c0-1,0.8-1.8,1.8-1.8h8.6c1,0,1.8,0.8,1.8,1.8v3c2-3.1,5.1-5.4,11.5-5.4c14.2,0,14.2,13.3,14.2,20.6L67.2,65.1L67.2,65.1z"
       id="path4303"
       style="fill:#20b2aa;fill-opacity:1" /></g></svg>