<?xml version="1.0" encoding="UTF-8" standalone="no"?>
<svg
   xmlns:dc="http://purl.org/dc/elements/1.1/"
   xmlns:cc="http://creativecommons.org/ns#"
   xmlns:rdf="http://www.w3.org/1999/02/22-rdf-syntax-ns#"
   xmlns:svg="http://www.w3.org/2000/svg"
   xmlns="http://www.w3.org/2000/svg"
   xmlns:sodipodi="http://sodipodi.sourceforge.net/DTD/sodipodi-0.dtd"
   xmlns:inkscape="http://www.inkscape.org/namespaces/inkscape"
   id="Layer_1"
   style="enable-background:new 0 0 76 76;"
   version="1.1"
   viewBox="0 0 76 76"
   xml:space="preserve"
   inkscape:version="0.91 r13725"
   sodipodi:docname="1477545744_10.svg"><metadata
     id="metadata4413"><rdf:RDF><cc:Work
         rdf:about=""><dc:format>image/svg+xml</dc:format><dc:type
           rdf:resource="http://purl.org/dc/dcmitype/StillImage" /><dc:title></dc:title></cc:Work></rdf:RDF></metadata><defs
     id="defs4411" /><sodipodi:namedview
     pagecolor="#ffffff"
     bordercolor="#666666"
     borderopacity="1"
     objecttolerance="10"
     gridtolerance="10"
     guidetolerance="10"
     inkscape:pageopacity="0"
     inkscape:pageshadow="2"
     inkscape:window-width="1366"
     inkscape:window-height="730"
     id="namedview4409"
     showgrid="false"
     inkscape:zoom="7.2105263"
     inkscape:cx="38"
     inkscape:cy="38"
     inkscape:window-x="0"
     inkscape:window-y="26"
     inkscape:window-maximized="1"
     inkscape:current-layer="Layer_1" /><style
     type="text/css"
     id="style4403">
	.st0{fill:#2A445D;}
	.st1{fill:#37546B;}
	.st2{fill:#213B51;}
</style><g
     id="g4405"
     style="fill:#20b2aa;fill-opacity:1"><path
       class="st0"
       d="M73.8,14.4c-1.6,0.7-3.4,1.3-5.1,1.7c1.9-1.8,3.4-4.1,4.2-6.7l0,0c0.2-0.7-0.6-1.4-1.2-1l0,0   c-2.4,1.4-5.1,2.5-7.8,3.2c-0.2,0-0.3,0.1-0.5,0.1c-0.5,0-1-0.2-1.4-0.5c-2.9-2.6-6.7-4-10.6-4c-1.7,0-3.4,0.3-5.1,0.8   c-5.2,1.6-9.2,5.9-10.4,11.1c-0.5,2-0.6,4-0.4,5.9c0,0.2-0.1,0.4-0.1,0.4c-0.1,0.1-0.3,0.2-0.4,0.2c0,0,0,0-0.1,0   c-11.3-1.1-21.5-6.5-28.8-15.4l0,0c-0.4-0.5-1.1-0.4-1.4,0.1l0,0c-1.4,2.4-2.2,5.2-2.2,8c0,4.3,1.7,8.4,4.8,11.4   C6.2,29.5,5,29,3.8,28.4l0,0c-0.6-0.3-1.2,0.1-1.2,0.7l0,0c-0.1,6.4,3.7,12.1,9.3,14.7c-0.1,0-0.2,0-0.3,0c-0.9,0-1.8-0.1-2.7-0.3   l0,0c-0.6-0.1-1.1,0.5-1,1.1l0,0c1.8,5.7,6.7,9.9,12.6,10.9c-4.9,3.3-10.6,5-16.5,5l-1.8,0c-0.6,0-1,0.4-1.2,0.9   c-0.1,0.5,0.1,1.1,0.6,1.4c6.7,3.9,14.3,5.9,22,5.9c6.8,0,13.1-1.3,18.8-4c5.2-2.4,9.9-5.9,13.8-10.3c3.6-4.1,6.5-8.9,8.4-14.1   c1.9-5,2.9-10.3,2.9-15.4v-0.2c0-0.8,0.4-1.6,1-2.1c2.5-2,4.6-4.3,6.3-7l0,0C75.3,14.9,74.6,14,73.8,14.4L73.8,14.4z"
       id="path4407"
       style="fill:#20b2aa;fill-opacity:1" /></g></svg>