<?xml version="1.0" encoding="UTF-8" standalone="no"?>
<svg
   xmlns:dc="http://purl.org/dc/elements/1.1/"
   xmlns:cc="http://creativecommons.org/ns#"
   xmlns:rdf="http://www.w3.org/1999/02/22-rdf-syntax-ns#"
   xmlns:svg="http://www.w3.org/2000/svg"
   xmlns="http://www.w3.org/2000/svg"
   xmlns:sodipodi="http://sodipodi.sourceforge.net/DTD/sodipodi-0.dtd"
   xmlns:inkscape="http://www.inkscape.org/namespaces/inkscape"
   id="Layer_1"
   style="enable-background:new 0 0 76 76;"
   version="1.1"
   viewBox="0 0 76 76"
   xml:space="preserve"
   inkscape:version="0.91 r13725"
   sodipodi:docname="1477545729_35.svg"><metadata
     id="metadata3398"><rdf:RDF><cc:Work
         rdf:about=""><dc:format>image/svg+xml</dc:format><dc:type
           rdf:resource="http://purl.org/dc/dcmitype/StillImage" /><dc:title></dc:title></cc:Work></rdf:RDF></metadata><defs
     id="defs3396" /><sodipodi:namedview
     pagecolor="#ffffff"
     bordercolor="#666666"
     borderopacity="1"
     objecttolerance="10"
     gridtolerance="10"
     guidetolerance="10"
     inkscape:pageopacity="0"
     inkscape:pageshadow="2"
     inkscape:window-width="1366"
     inkscape:window-height="730"
     id="namedview3394"
     showgrid="false"
     inkscape:zoom="7.2105263"
     inkscape:cx="12.759124"
     inkscape:cy="38"
     inkscape:window-x="0"
     inkscape:window-y="26"
     inkscape:window-maximized="1"
     inkscape:current-layer="Layer_1" /><style
     type="text/css"
     id="style3388">
	.st0{fill:#2A445D;}
	.st1{fill:#37546B;}
	.st2{fill:#213B51;}
</style><g
     id="g3390"
     style="fill:#20b2aa;fill-opacity:1;opacity:1"><path
       class="st0"
       d="M65,1H11C5.5,1,1,5.5,1,11V65c0,5.5,4.5,10,10,10h26.7l0-26.4h-6.9c-0.9,0-1.6-0.7-1.6-1.6l0-8.5   c0-0.9,0.7-1.6,1.6-1.6h6.9v-8.2c0-9.6,5.8-14.8,14.4-14.8h7c0.9,0,1.6,0.7,1.6,1.6v7.2c0,0.9-0.7,1.6-1.6,1.6l-4.3,0   c-4.6,0-5.5,2.2-5.5,5.4v7.1h10.2c1,0,1.7,0.8,1.6,1.8l-1,8.5c-0.1,0.8-0.8,1.4-1.6,1.4h-9.1l0,26.4H65c5.5,0,10-4.5,10-10V11   C75,5.5,70.5,1,65,1z"
       id="path3392"
       style="fill:#20b2aa;fill-opacity:1" /></g></svg>