<?xml version="1.0" encoding="UTF-8" standalone="no"?>
<svg
   xmlns:dc="http://purl.org/dc/elements/1.1/"
   xmlns:cc="http://creativecommons.org/ns#"
   xmlns:rdf="http://www.w3.org/1999/02/22-rdf-syntax-ns#"
   xmlns:svg="http://www.w3.org/2000/svg"
   xmlns="http://www.w3.org/2000/svg"
   xmlns:sodipodi="http://sodipodi.sourceforge.net/DTD/sodipodi-0.dtd"
   xmlns:inkscape="http://www.inkscape.org/namespaces/inkscape"
   id="Layer_1"
   style="enable-background:new 0 0 76 76;"
   version="1.1"
   viewBox="0 0 76 76"
   xml:space="preserve"
   inkscape:version="0.91 r13725"
   sodipodi:docname="1477545764_34.svg"><metadata
     id="metadata4745"><rdf:RDF><cc:Work
         rdf:about=""><dc:format>image/svg+xml</dc:format><dc:type
           rdf:resource="http://purl.org/dc/dcmitype/StillImage" /><dc:title></dc:title></cc:Work></rdf:RDF></metadata><defs
     id="defs4743" /><sodipodi:namedview
     pagecolor="#ffffff"
     bordercolor="#666666"
     borderopacity="1"
     objecttolerance="10"
     gridtolerance="10"
     guidetolerance="10"
     inkscape:pageopacity="0"
     inkscape:pageshadow="2"
     inkscape:window-width="1366"
     inkscape:window-height="730"
     id="namedview4741"
     showgrid="false"
     inkscape:zoom="7.2105263"
     inkscape:cx="38"
     inkscape:cy="38"
     inkscape:window-x="0"
     inkscape:window-y="26"
     inkscape:window-maximized="1"
     inkscape:current-layer="Layer_1" /><style
     type="text/css"
     id="style4731">
	.st0{fill:#2A445D;}
	.st1{fill:#37546B;}
	.st2{fill:#213B51;}
</style><g
     id="g4733"
     style="fill:#20b2aa;fill-opacity:1"><g
       id="g4735"
       style="fill:#20b2aa;fill-opacity:1"><path
         class="st0"
         d="M27,42.9h11.6c-2,5.7-7.5,9.9-14,9.8c-7.8-0.1-14.3-6.3-14.6-14.1c-0.3-8.4,6.4-15.3,14.7-15.3    c3.8,0,7.3,1.4,9.9,3.8c0.6,0.6,1.6,0.6,2.2,0l4.2-4c0.7-0.6,0.7-1.7,0-2.3c-4.1-3.9-9.7-6.4-15.8-6.5C12.1,14.1,1.1,24.8,1,37.8    C0.9,51,11.5,61.7,24.7,61.7c12.6,0,22.9-9.9,23.6-22.3c0-0.2,0-5.4,0-5.4H27c-0.9,0-1.6,0.7-1.6,1.6v5.8    C25.4,42.2,26.1,42.9,27,42.9z"
         id="path4737"
         style="fill:#20b2aa;fill-opacity:1" /><path
         class="st0"
         d="M67.9,34.4v-5.7c0-0.8-0.6-1.4-1.4-1.4h-4.8c-0.8,0-1.4,0.6-1.4,1.4v5.7h-5.7c-0.8,0-1.4,0.6-1.4,1.4v4.8    c0,0.8,0.6,1.4,1.4,1.4h5.7v5.7c0,0.8,0.6,1.4,1.4,1.4h4.8c0.8,0,1.4-0.6,1.4-1.4V42h5.7c0.8,0,1.4-0.6,1.4-1.4v-4.8    c0-0.8-0.6-1.4-1.4-1.4H67.9L67.9,34.4z"
         id="path4739"
         style="fill:#20b2aa;fill-opacity:1" /></g></g></svg>